<?xml version="1.0" encoding="UTF-8" standalone="no"?>
<!-- Created with Inkscape (http://www.inkscape.org/) -->

<svg
   xmlns:dc="http://purl.org/dc/elements/1.1/"
   xmlns:cc="http://creativecommons.org/ns#"
   xmlns:rdf="http://www.w3.org/1999/02/22-rdf-syntax-ns#"
   xmlns:svg="http://www.w3.org/2000/svg"
   xmlns="http://www.w3.org/2000/svg"
   xmlns:xlink="http://www.w3.org/1999/xlink"
   xmlns:sodipodi="http://sodipodi.sourceforge.net/DTD/sodipodi-0.dtd"
   xmlns:inkscape="http://www.inkscape.org/namespaces/inkscape"
   id="svg2"
   version="1.1"
   inkscape:version="0.48.1 r9760"
   width="80"
   height="100"
   xml:space="preserve"
   sodipodi:docname="thumb.svg"
   inkscape:export-filename="/home/steren/WIP/Beansight/Mobile-Android/trunk/graphics/agree-disagree/agree.png"
   inkscape:export-xdpi="90"
   inkscape:export-ydpi="90"><metadata
     id="metadata8"><rdf:RDF><cc:Work
         rdf:about=""><dc:format>image/svg+xml</dc:format><dc:type
           rdf:resource="http://purl.org/dc/dcmitype/StillImage" /><dc:title></dc:title></cc:Work></rdf:RDF></metadata><defs
     id="defs6"><clipPath
       clipPathUnits="userSpaceOnUse"
       id="clipPath16"><path
         d="m 0,841.89 595.28,0 L 595.28,0 0,0 0,841.89 z"
         id="path18"
         inkscape:connector-curvature="0" /></clipPath></defs><sodipodi:namedview
     pagecolor="#ffffff"
     bordercolor="#666666"
     borderopacity="1"
     objecttolerance="10"
     gridtolerance="10"
     guidetolerance="10"
     inkscape:pageopacity="0"
     inkscape:pageshadow="2"
     inkscape:window-width="1920"
     inkscape:window-height="1176"
     id="namedview4"
     showgrid="false"
     inkscape:zoom="4.0000001"
     inkscape:cx="-92.551545"
     inkscape:cy="38.172076"
     inkscape:window-x="1600"
     inkscape:window-y="24"
     inkscape:window-maximized="1"
     inkscape:current-layer="g10" /><g
     id="g10"
     inkscape:groupmode="layer"
     inkscape:label="up"
     transform="matrix(1.25,0,0,-1.25,0,99.99995)"
     style="display:inline"><path
       inkscape:connector-curvature="0"
       id="path34"
       style="fill:#ffffff;fill-opacity:1;fill-rule:nonzero;stroke:none"
       d="m 53.415784,35.147879 c -0.007,0.0063 -0.007,0.02026 -0.007,0.02026 0.01332,0 0.06155,-0.05761 0.06155,-0.0611 -0.007,0 -0.0206,0.0096 -0.05486,0.04068 m -0.637368,0.0063 c -0.225357,-0.466852 -0.869669,-0.988802 -1.292593,-1.241213 -0.08166,-0.04764 -1.220868,-0.439802 -1.241218,-0.521712 -0.01364,-0.07155 0.29312,-0.224855 0.333821,-0.28641 0.477525,-0.702646 0,-2.591643 -0.286167,-3.154303 -0.347719,-0.682291 -1.091311,-1.224089 -1.95403,-1.384665 -0.17051,-0.02707 -0.692217,0.03419 -0.81507,-0.09212 -0.129554,-0.14293 0.163805,-0.231567 0.194336,-0.28641 0.896723,-1.364073 0.08538,-3.334981 -0.855774,-3.962426 -0.617521,-0.405748 -1.691701,-0.774069 -2.721213,-0.665125 -0.627683,0.06853 -1.275468,0.303553 -1.906626,0.382219 -0.767169,0.09213 -1.527386,0.0096 -2.199247,0.09877 -0.398849,0.04764 -0.825244,0.310248 -1.282173,0.283197 -0.457173,-0.02755 -0.914094,-0.460647 -1.384421,-0.620734 -2.12802,-0.729948 -4.805041,-0.763947 -7.400407,-0.763947 -1.970905,0 -4.047546,0.07835 -5.824117,0.238515 -0.607085,0.05841 -1.28912,0.211465 -1.855252,0.191109 -0.395622,-0.01694 -0.811595,-0.24198 -1.241218,-0.286411 -0.300067,-0.03404 -0.627436,0.03404 -0.907148,0 -1.797175,-0.231819 -3.85669,-1.74257 -4.72636,-2.830662 -0.01364,-0.0126 -0.03399,-0.0372 -0.0479,-0.05762 l -4.412392,0 0,23.311372 4.412392,0 c 2.694148,2.319129 4.252558,5.621598 5.295967,9.495655 0.341017,1.258103 0.66491,2.625658 1.193812,3.768089 0.235041,0.506311 0.753516,1.028262 1.098011,1.434064 0.760466,0.879602 1.384425,1.803874 1.905882,2.862921 0.266312,0.528391 0.440296,1.10471 0.72001,1.670838 0.204512,0.412498 0.582759,0.70388 0.763693,1.142193 0.115913,0.291619 0.119374,0.571333 0.235289,0.85776 0.04766,0.103984 0.160333,0.219647 0.194335,0.335811 0.04418,0.158583 -0.01687,0.339276 0.05088,0.526667 0.06155,0.187626 0.286663,0.307256 0.375269,0.522187 0.05484,0.137699 0.01364,0.318686 0.05138,0.429386 0.09184,0.312226 0.279468,0.66317 0.42615,1.004441 0.09555,0.2199 0.334319,0.417705 0.381969,0.571097 0.06801,0.204499 -0.01685,0.467342 0.04766,0.665148 0.07843,0.231564 0.214933,0.264077 0.23876,0.478769 0.03401,0.318923 -0.122858,0.697673 -0.0953,1.04887 0.03375,0.429624 0.286416,0.796205 0.286416,1.099741 0,0.494409 -0.306769,1.26331 -0.429873,1.861964 -0.102511,0.52692 -0.449977,1.538055 -0.286419,2.049339 0.06131,0.197804 0.354672,0.341016 0.525181,0.477519 1.016105,0.824995 2.577989,0.231802 3.341933,-0.427883 1.244691,-1.070967 2.073412,-3.330027 2.530339,-5.488816 0.160081,-0.768903 0.313717,-1.757956 0.286413,-2.434531 -0.007,-0.121409 -0.133041,-0.235542 -0.143194,-0.378738 -0.02035,-0.170518 0.07174,-0.329114 0.04418,-0.477283 -0.08835,-0.501357 -0.337542,-0.990795 -0.480506,-1.478493 -0.293364,-1.028024 -0.596904,-2.006649 -0.948099,-2.961452 -0.180934,-0.47926 -0.443524,-0.929241 -0.57308,-1.384426 -0.313719,-1.072945 -0.293363,-2.027496 -0.477524,-3.384634 -0.06106,-0.422913 -0.163314,-1.033471 -0.190862,-1.720475 -0.02732,-0.687244 -0.136262,-1.686477 0,-1.856978 0.09208,-0.115864 0.552481,-0.08342 0.856018,-0.192361 0.402327,-0.143397 0.780821,-0.477519 1.193318,-0.571333 0.781072,-0.187643 1.545009,-0.133113 2.247398,-0.286663 0.457173,-0.103828 0.770892,-0.449981 1.193564,-0.526667 0.504829,-0.09386 1.009406,0.02722 1.425627,0 0.528405,-0.03229 1.039933,-0.180694 1.578764,-0.335811 0.555707,-0.153692 1.142436,-0.104307 1.715271,-0.235286 0.572829,-0.132953 1.186859,-0.600377 1.766395,-0.907396 1.793948,-0.961754 4.017019,-1.483213 5.677684,-2.484187 0.63116,-0.378499 1.231292,-1.026282 1.769873,-1.713526 0.518476,-0.675087 1.190341,-1.478241 1.282171,-2.247156 0.07868,-0.62072 -0.119136,-2.175901 -0.381723,-2.670309 -0.105972,-0.201287 -0.412747,-0.487715 -0.572831,-0.620496 -0.03427,-0.02723 -0.681789,-0.446735 -0.572829,-0.569594 -0.01391,0.02059 0.422671,-0.02026 0.392143,0 0.627185,-0.191109 1.530863,-1.62989 1.660664,-2.291586 0.146431,-0.777338 0.109217,-2.387127 -0.187384,-3.007861 m -2.04948,-5.159235 c -0.007,0 -0.02033,0.0171 -0.04789,0.04417 l -0.007,0.0063 c -0.01364,0.02042 -0.02706,0.03768 -0.04071,0.05826 -0.02032,0.03371 -0.03079,0.05081 -0.03079,0.05413 0.01042,0 0.126331,-0.139443 0.126331,-0.156383 l 0,-0.0063 z M 20.323848,19.60065 l -0.04069,0.0032 c 0,0 0.03399,-0.0032 0.06105,-0.0032 l -0.02036,0 z m 36.068789,19.212696 c -0.105733,0.555713 -0.398844,1.346693 -0.869425,2.144641 0.422681,1.388144 0.42963,2.949786 0.42963,3.028213 0,0 -0.04074,0.733415 -0.04074,0.750541 -0.205001,1.66563 -1.207463,2.951273 -1.865421,3.797116 0,0 -0.126346,0.158362 -0.143471,0.180694 -0.92725,1.186606 -1.796927,2.000191 -2.71102,2.550695 -1.155842,0.69742 -2.376708,1.157577 -3.556872,1.609535 -0.842124,0.318939 -1.639815,0.620733 -2.291325,0.97193 l -0.372044,0.220137 c -0.552228,0.329116 -1.302518,0.786043 -2.243916,0.998996 l -1.319401,0.187627 c 0,0 -0.23529,0.02232 -0.283192,0.02706 -0.603355,0.172243 -1.350423,0.37353 -2.202968,0.433344 l -0.409027,0.0239 c 0,0 -0.29336,-0.0126 -0.484226,-0.02232 -0.307014,0.158598 -0.722987,0.339292 -1.251393,0.460646 -0.555953,0.11571 -1.060782,0.160087 -1.473278,0.192361 0.01711,0.09877 0.03402,0.203012 0.04418,0.296587 0,0 0.03427,0.232311 0.04096,0.264568 l 0.146679,1.37922 c 0.05807,0.637859 0.105732,1.093299 0.22139,1.488657 0,0 0.0038,0.0047 0.0038,0.01114 0.0033,0.01114 0.143207,0.324398 0.143207,0.324398 l 0.334069,0.790998 c 0,0.0047 0.0033,0.0047 0.0033,0.0096 0,0 0,0.0126 0.0067,0.022 0.341265,0.912113 0.654984,1.90117 1.030003,3.186812 l 0.115913,0.324146 c 0.129553,0.34276 0.296594,0.813078 0.409275,1.357377 l 0.102247,0.835174 c 0,0 -0.01363,0.09877 -0.03055,0.230063 0.04418,0.148467 0.11565,0.407795 0.11565,0.407795 0.0033,0.01583 0.01006,0.03229 0.01711,0.04417 -0.007,0.0047 -0.01363,0.02026 -0.01363,0.06505 l 0,0.04241 -0.0033,-0.08705 0.0033,0.09401 0,-0.0063 0.0067,0.172241 c 0,1.021314 -0.204511,2.185603 -0.368071,2.989008 -0.497879,2.373231 -1.547985,5.587093 -3.676006,7.421991 -1.220863,1.04515 -2.871353,1.670838 -4.412889,1.670838 -1.224093,0 -2.359828,-0.383454 -3.311403,-1.11489 -0.01006,-0.0047 -0.02356,-0.01113 -0.02356,-0.01113 -0.344493,-0.241999 -1.248416,-0.857508 -1.674319,-2.061257 0,-0.0047 -0.0035,-0.01708 -0.0035,-0.02232 l -0.248942,-1.500322 c 0,-0.806634 0.194336,-1.559898 0.330844,-2.103944 0,0 0.06478,-0.274745 0.06801,-0.30205 l 0.259115,-0.998978 0.007,-0.01693 C 24.87289,71.296796 24.794692,70.96594 24.763669,70.587457 l 0,-0.0888 0,-0.03736 c 0,-0.01694 -0.0035,-0.03244 -0.0035,-0.04939 0,-0.02722 -0.0035,-0.04939 -0.0035,-0.06648 l 0,-0.02723 c 0,-0.03245 -0.0067,-0.08705 -0.0067,-0.08705 0,0 0.02059,-0.197804 0.03748,-0.368322 -0.0032,-0.02707 -0.04418,-0.281202 -0.08512,-0.550741 -0.122858,-0.197821 -0.225111,-0.361372 -0.225111,-0.361372 L 24.368034,68.71362 c 0,0 -0.361121,-0.912098 -0.426148,-1.070443 -0.01006,-0.06679 -0.02705,-0.170772 -0.05112,-0.302067 -0.170511,-0.276233 -0.36137,-0.577791 -0.36137,-0.577791 -0.0067,-0.0063 -0.01006,-0.01583 -0.01363,-0.02232 0,-0.0096 -0.007,-0.02232 -0.007,-0.03783 0,0 -0.04443,-0.258869 -0.07843,-0.483994 -0.02059,-0.03245 -0.07174,-0.126316 -0.07174,-0.126316 -0.0067,-0.0047 -0.01006,-0.0047 -0.01006,-0.01114 0,-0.01114 0,-0.02184 -0.0032,-0.03893 0,0 -0.115913,-0.390418 -0.20451,-0.687007 -0.187635,-0.242235 -0.457175,-0.603607 -0.692463,-1.07095 L 21.967456,63.17486 c 0,0 -0.228587,-0.549001 -0.238763,-0.566126 -0.381969,-0.763694 -0.831946,-1.439035 -1.435555,-2.14315 L 20.105504,60.2576 c -0.429623,-0.489454 -1.016356,-1.149394 -1.421905,-2.027257 -0.576552,-1.248416 -0.934449,-2.588413 -1.244692,-3.770064 0,0 -0.143458,-0.549254 -0.1504,-0.555966 -0.831697,-3.081081 -1.909357,-5.312838 -3.341684,-6.905246 l -2.993965,0 c -1.9302043,0 -3.4920892,-1.5671 -3.4920892,-3.495557 l 0,-23.311389 c 0,-1.930198 1.5618849,-3.495558 3.4920892,-3.495558 l 4.412396,0 c 1.006177,0 2.13124,0.641327 2.796401,1.401555 L 17.88194,17.784386 c 0.03773,0.03767 0.23206,0.245717 0.262836,0.289894 0.429377,0.539076 1.616241,1.346961 2.315404,1.517715 0.115913,-0.0064 0.395372,-0.0171 0.395372,-0.0171 l 0.470579,0.02375 0.03448,0 c 0.01006,0 0.02706,0.0032 0.04071,0.0096 0,0 0.941399,0.207984 1.152611,0.252413 0.129554,-0.0171 0.307016,-0.04448 0.436327,-0.06125 0,0 0.818543,-0.102247 0.842618,-0.102247 1.796925,-0.160595 3.97954,-0.252668 6.134362,-0.252668 3.151323,0 5.967828,0.07519 8.511817,0.948092 0.252661,0.0888 0.484226,0.187643 0.682035,0.286664 0.191111,-0.04811 0.415974,-0.105732 0.415974,-0.105732 0.552728,-0.0717 1.047133,-0.07519 1.486931,-0.07519 0.286417,0 0.559182,-0.0064 0.746815,-0.02706 l 0.532219,-0.116159 c 0.392147,-0.09213 0.879847,-0.208236 1.428854,-0.269301 0.06825,-0.0064 0.0067,-0.0064 0.06825,-0.0064 l 0.678313,-0.03799 c 1.477007,0 3.072644,0.477521 4.272909,1.275466 1.527884,1.009665 2.612493,2.946319 2.789453,4.927898 0.763942,0.55571 1.395099,1.282176 1.827948,2.127764 0.36162,0.709086 0.743594,1.96073 0.839142,3.229502 0.586485,0.477282 1.261578,1.176445 1.677546,2.042641 0.409274,0.845589 0.613786,1.991501 0.613786,3.396537 0,0.470319 -0.02707,1.149142 -0.146678,1.769875" /></g><g
     inkscape:groupmode="layer"
     id="layer1"
     inkscape:label="down"
     style="display:none"
     transform="translate(0,-150)"><use
       x="0"
       y="0"
       xlink:href="#path34"
       id="use3074"
       transform="matrix(1.25,0,0,1.25,2.75e-6,149.95005)"
       width="250"
       height="250"
       style="fill:#ffffff" /></g></svg>