<?xml version="1.0" encoding="UTF-8" standalone="no"?>
<!-- Created with Inkscape (http://www.inkscape.org/) -->

<svg
   xmlns:dc="http://purl.org/dc/elements/1.1/"
   xmlns:cc="http://creativecommons.org/ns#"
   xmlns:rdf="http://www.w3.org/1999/02/22-rdf-syntax-ns#"
   xmlns:svg="http://www.w3.org/2000/svg"
   xmlns="http://www.w3.org/2000/svg"
   xmlns:xlink="http://www.w3.org/1999/xlink"
   xmlns:sodipodi="http://sodipodi.sourceforge.net/DTD/sodipodi-0.dtd"
   xmlns:inkscape="http://www.inkscape.org/namespaces/inkscape"
   id="svg2"
   version="1.1"
   inkscape:version="0.48.1 r9760"
   width="72"
   height="72"
   xml:space="preserve"
   sodipodi:docname="icon.svg"
   inkscape:export-filename="/home/steren/WIP/Beansight/Mobile-Android/trunk/graphics/icon/icon-full.png"
   inkscape:export-xdpi="900"
   inkscape:export-ydpi="900"
   style="display:inline;enable-background:new"><metadata
     id="metadata8"><rdf:RDF><cc:Work
         rdf:about=""><dc:format>image/svg+xml</dc:format><dc:type
           rdf:resource="http://purl.org/dc/dcmitype/StillImage" /><dc:title></dc:title></cc:Work></rdf:RDF></metadata><defs
     id="defs6"><linearGradient
       inkscape:collect="always"
       id="linearGradient5295"><stop
         style="stop-color:#000000;stop-opacity:1;"
         offset="0"
         id="stop5297" /><stop
         style="stop-color:#000000;stop-opacity:0;"
         offset="1"
         id="stop5299" /></linearGradient><linearGradient
       inkscape:collect="always"
       id="linearGradient4712"><stop
         style="stop-color:#ffffff;stop-opacity:1"
         offset="0"
         id="stop4714" /><stop
         style="stop-color:#ffffff;stop-opacity:0"
         offset="1"
         id="stop4716" /></linearGradient><linearGradient
       inkscape:collect="always"
       id="linearGradient4675"><stop
         style="stop-color:#0ad85c;stop-opacity:1;"
         offset="0"
         id="stop4677" /><stop
         style="stop-color:#0ad85c;stop-opacity:0;"
         offset="1"
         id="stop4679" /></linearGradient><linearGradient
       inkscape:collect="always"
       id="linearGradient4643"><stop
         style="stop-color:#000000;stop-opacity:0"
         offset="0"
         id="stop4645" /><stop
         style="stop-color:#000000;stop-opacity:0;"
         offset="1"
         id="stop4647" /></linearGradient><clipPath
       clipPathUnits="userSpaceOnUse"
       id="clipPath64"><path
         d="m 6981.116,7206.835 c -2.089,-2.085 -3.165,-4.677 -3.165,-7.622 l 0,0 c 0,-2.949 1.076,-5.54 3.165,-7.626 l 0,0 c 2.082,-2.085 4.673,-3.165 7.622,-3.165 l 0,0 c 3.596,0 6.686,-1.29 9.205,-3.809 l 0,0 0,-0.072 0.072,0 c 2.66,-2.66 3.957,-5.754 3.957,-9.422 l 0,0 c 0,-3.596 -1.297,-6.689 -3.957,-9.205 l 0,0 -0.072,-0.072 0,-0.072 c -2.519,-2.591 -5.609,-3.882 -9.205,-3.882 l 0,0 c -3.668,0 -6.761,1.291 -9.422,3.954 l 0,0 c -1.767,1.767 -2.92,3.777 -3.48,6.017 l 0,0 c 1.626,-11.004 8.959,-44.896 35.659,-22.843 l 0,0 c 0.571,0.516 1.146,1.019 1.695,1.579 l 0,0 c 0.072,0 0.072,0 0.144,0.072 l 0,0 c 6.831,6.834 10.213,14.958 10.213,24.452 l 0,0 c 0,9.566 -3.455,17.766 -10.285,24.669 l 0,0 c -6.762,6.834 -14.958,10.209 -24.524,10.209 l 0,0 c -2.949,0 -5.54,-1.077 -7.622,-3.162"
         id="path66"
         inkscape:connector-curvature="0" /></clipPath><linearGradient
       x1="0"
       y1="0"
       x2="1"
       y2="0"
       gradientUnits="userSpaceOnUse"
       gradientTransform="matrix(-36.213135,-13.430344,-13.430344,36.213135,7001.6875,7179.2422)"
       spreadMethod="pad"
       id="linearGradient72"><stop
         style="stop-opacity:1;stop-color:#7aa13d"
         offset="0"
         id="stop74" /><stop
         style="stop-opacity:1;stop-color:#00505c"
         offset="1"
         id="stop76" /></linearGradient><clipPath
       clipPathUnits="userSpaceOnUse"
       id="clipPath84"><path
         d="m 0,14400 14400,0 L 14400,0 0,0 0,14400 z"
         id="path86"
         inkscape:connector-curvature="0" /></clipPath><clipPath
       clipPathUnits="userSpaceOnUse"
       id="clipPath100"><path
         d="m 6953.258,7227.208 c -0.039,0.119 -0.079,0.237 -0.121,0.356 l 0,0 c 0.04,-0.119 0.082,-0.237 0.121,-0.356 m 0.111,-0.359 c -0.033,0.121 -0.071,0.24 -0.111,0.359 l 0,0 c 0.039,-0.119 0.076,-0.238 0.111,-0.359"
         id="path102"
         inkscape:connector-curvature="0" /></clipPath><linearGradient
       x1="0"
       y1="0"
       x2="1"
       y2="0"
       gradientUnits="userSpaceOnUse"
       gradientTransform="matrix(35.461395,13.15155,13.15155,-35.461395,6928.6191,7218.0698)"
       spreadMethod="pad"
       id="linearGradient108"><stop
         style="stop-opacity:1;stop-color:#7aa13d"
         offset="0"
         id="stop110" /><stop
         style="stop-opacity:1;stop-color:#00505c"
         offset="1"
         id="stop112" /></linearGradient><clipPath
       clipPathUnits="userSpaceOnUse"
       id="clipPath120"><path
         d="m 6917.8,7249.421 c -0.571,-0.517 -1.145,-1.019 -1.695,-1.579 l 0,0 c -0.072,0 -0.072,0 -0.144,-0.076 l 0,0 c -6.834,-6.83 -10.213,-14.958 -10.213,-24.452 l 0,0 c 0,-0.014 0,-0.025 0,-0.04 l 0,0 c 0.011,9.476 3.387,17.589 10.21,24.409 l 0,0 c 0.072,0.072 0.072,0.072 0.144,0.072 l 0,0 c 0.763,0.781 1.554,1.507 2.356,2.198 l 0,0 c -0.22,-0.178 -0.437,-0.348 -0.661,-0.532"
         id="path122"
         inkscape:connector-curvature="0" /></clipPath><linearGradient
       x1="0"
       y1="0"
       x2="1"
       y2="0"
       gradientUnits="userSpaceOnUse"
       gradientTransform="matrix(36.21141,13.429718,13.429718,-36.21141,6920.0547,7239.562)"
       spreadMethod="pad"
       id="linearGradient128"><stop
         style="stop-opacity:1;stop-color:#7aa13d"
         offset="0"
         id="stop130" /><stop
         style="stop-opacity:1;stop-color:#00505c"
         offset="1"
         id="stop132" /></linearGradient><clipPath
       clipPathUnits="userSpaceOnUse"
       id="clipPath140"><path
         d="m 6927.323,7223.231 c 0,-3.668 1.294,-6.758 3.957,-9.421 l 0,0 0.073,0 0,-0.073 c 2.515,-2.515 5.608,-3.809 9.204,-3.809 l 0,0 c 2.949,0 5.537,-1.08 7.622,-3.165 l 0,0 c 2.078,-2.075 3.155,-4.652 3.166,-7.582 l 0,0 c 0,0.014 0,0.028 0,0.043 l 0,0 c 0,2.949 -1.081,5.54 -3.166,7.625 l 0,0 c -2.085,2.086 -4.673,3.162 -7.622,3.162 l 0,0 c -3.596,0 -6.689,1.294 -9.204,3.813 l 0,0 0,0.069 -0.073,0 c -2.653,2.652 -3.943,5.732 -3.953,9.381 l 0,0 c 0,-0.014 0,-0.028 0,-0.043"
         id="path142"
         inkscape:connector-curvature="0" /></clipPath><linearGradient
       x1="0"
       y1="0"
       x2="1"
       y2="0"
       gradientUnits="userSpaceOnUse"
       gradientTransform="matrix(36.212555,13.430145,13.430145,-36.212555,6931.6235,7208.3687)"
       spreadMethod="pad"
       id="linearGradient148"><stop
         style="stop-opacity:1;stop-color:#7aa13d"
         offset="0"
         id="stop150" /><stop
         style="stop-opacity:1;stop-color:#00505c"
         offset="1"
         id="stop152" /></linearGradient><clipPath
       clipPathUnits="userSpaceOnUse"
       id="clipPath160"><path
         d="m 0,14400 14400,0 L 14400,0 0,0 0,14400 z"
         id="path162"
         inkscape:connector-curvature="0" /></clipPath><clipPath
       clipPathUnits="userSpaceOnUse"
       id="clipPath172"><path
         d="m 6918.461,7249.953 c -0.802,-0.691 -1.593,-1.417 -2.356,-2.198 l 0,0 c -0.072,0 -0.072,0 -0.144,-0.072 l 0,0 c -6.823,-6.82 -10.199,-14.933 -10.21,-24.409 l 0,0 c 0.011,-9.547 3.459,-17.733 10.282,-24.628 l 0,0 c 6.758,-6.831 14.958,-10.21 24.524,-10.21 l 0,0 c 2.949,0 5.537,1.077 7.622,3.166 l 0,0 c 2.078,2.074 3.155,4.651 3.166,7.579 l 0,0 c -0.011,2.93 -1.088,5.507 -3.166,7.582 l 0,0 c -2.085,2.085 -4.673,3.165 -7.622,3.165 l 0,0 c -3.596,0 -6.689,1.294 -9.204,3.809 l 0,0 0,0.073 -0.073,0 c -2.663,2.663 -3.957,5.753 -3.957,9.421 l 0,0 c 0,0.015 0,0.029 0,0.043 l 0,0 c 0,0.015 0,0.026 0,0.04 l 0,0 c 0,3.596 1.294,6.689 3.957,9.208 l 0,0 0.073,0.073 0,0.069 c 2.515,2.591 5.608,3.884 9.204,3.884 l 0,0 c 3.668,0 6.762,-1.293 9.422,-3.953 l 0,0 c 1.503,-1.504 2.529,-3.188 3.158,-5.031 l 0,0 c 0.083,-0.238 0.163,-0.473 0.232,-0.715 l 0,0 c 0.025,-0.094 0.065,-0.178 0.086,-0.271 l 0,0 c -1.241,8.4 -5.809,30.134 -19.782,30.134 l 0,0 c -4.176,10e-4 -9.193,-1.941 -15.212,-6.759"
         id="path174"
         inkscape:connector-curvature="0" /></clipPath><linearGradient
       x1="0"
       y1="0"
       x2="1"
       y2="0"
       gradientUnits="userSpaceOnUse"
       gradientTransform="matrix(36.211838,13.429871,13.429871,-36.211822,6927.6099,7219.1914)"
       spreadMethod="pad"
       id="linearGradient180"><stop
         style="stop-opacity:1;stop-color:#7aa13d"
         offset="0"
         id="stop182" /><stop
         style="stop-opacity:1;stop-color:#00505c"
         offset="1"
         id="stop184" /></linearGradient><clipPath
       clipPathUnits="userSpaceOnUse"
       id="clipPath192"><path
         d="m 0,14400 14400,0 L 14400,0 0,0 0,14400 z"
         id="path194"
         inkscape:connector-curvature="0" /></clipPath><filter
       id="filter3964"
       inkscape:label="Drop shadow"
       width="1.5"
       height="1.5"
       x="-0.25"
       y="-0.25"
       color-interpolation-filters="sRGB"><feGaussianBlur
         id="feGaussianBlur3966"
         in="SourceAlpha"
         stdDeviation="3"
         result="blur" /><feColorMatrix
         id="feColorMatrix3968"
         result="bluralpha"
         type="matrix"
         values="1 0 0 0 0 0 1 0 0 0 0 0 1 0 0 0 0 0 0.75 0 " /><feOffset
         id="feOffset3970"
         in="bluralpha"
         dx="0"
         dy="-1"
         result="offsetBlur" /><feMerge
         id="feMerge3972"><feMergeNode
           id="feMergeNode3974"
           in="offsetBlur" /><feMergeNode
           id="feMergeNode3976"
           in="SourceGraphic" /></feMerge></filter><filter
       id="filter3980"
       height="1"
       width="1"
       y="0"
       x="0"
       inkscape:label="Film grain"
       inkscape:menu="Image effects"
       inkscape:menu-tooltip="Adds a small scale graininess"
       color-interpolation-filters="sRGB"><feTurbulence
         id="feTurbulence3982"
         type="fractalNoise"
         numOctaves="2"
         baseFrequency="0.5000000000000000"
         seed="0"
         result="result0" /><feColorMatrix
         id="feColorMatrix3984"
         result="result4"
         values="0"
         type="saturate" /><feComposite
         id="feComposite3986"
         in2="result4"
         in="SourceGraphic"
         operator="arithmetic"
         k1="1.25"
         k2="0.5"
         k3="0.5"
         result="result2"
         k4="0" /><feBlend
         id="feBlend3988"
         in2="SourceGraphic"
         result="result5"
         mode="normal"
         in="result2" /><feComposite
         id="feComposite3990"
         in2="SourceGraphic"
         in="result5"
         operator="in"
         result="result3" /></filter><radialGradient
       inkscape:collect="always"
       xlink:href="#linearGradient4643"
       id="radialGradient4649"
       cx="6986.4692"
       cy="7115.6577"
       fx="6986.4692"
       fy="7115.6577"
       r="58.899502"
       gradientTransform="matrix(0.02459606,1.7694364,-0.99990351,0.01388265,13943.022,-5277.6435)"
       gradientUnits="userSpaceOnUse" /><radialGradient
       inkscape:collect="always"
       xlink:href="#linearGradient4675"
       id="radialGradient4681"
       cx="6961.0186"
       cy="7236.1934"
       fx="6961.0186"
       fy="7236.1934"
       r="59.1492"
       gradientTransform="matrix(1,0,0,1.0036399,0,-26.204624)"
       gradientUnits="userSpaceOnUse" /><radialGradient
       inkscape:collect="always"
       xlink:href="#linearGradient4712"
       id="radialGradient5194"
       cx="33.982658"
       cy="6.5436869"
       fx="33.982658"
       fy="6.5436869"
       r="30.5"
       gradientUnits="userSpaceOnUse"
       gradientTransform="matrix(0.8352893,0.54981069,-0.42622951,0.64754098,10.403675,-18.171326)" /><clipPath
       clipPathUnits="userSpaceOnUse"
       id="clipPath5231"><g
         transform="translate(110,49.25)"
         id="g5233"
         style="opacity:0.87966805;display:inline;enable-background:new"><g
           style="fill:#000000"
           id="g5235"
           transform="matrix(0.51783122,0,0,-0.51813911,-3680.762,3716.9246)"><g
             style="fill:#000000"
             id="g5237"
             clip-path="url(#clipPath84)"><g
               style="fill:#000000"
               id="g5239"
               transform="translate(6940.5576,7188.4375)"><path
                 d="m 0,0 c -9.565,0 -17.765,3.378 -24.524,10.21 -6.822,6.895 -10.273,15.08 -10.283,24.626 0,-0.014 -0.002,-0.028 -0.002,-0.042 0,-9.565 3.453,-17.762 10.285,-24.668 C -17.764,3.294 -9.565,-0.085 0,-0.085 c 2.949,0 5.538,1.077 7.623,3.165 2.085,2.085 3.165,4.674 3.165,7.623 0,0.014 -0.002,0.027 -0.002,0.041 C 10.776,7.814 9.699,5.24 7.623,3.164 5.538,1.076 2.948,0 0,0"
                 style="fill:#000000;fill-opacity:1;fill-rule:nonzero;stroke:none"
                 id="path5241"
                 inkscape:connector-curvature="0" /></g><g
               style="fill:#000000"
               id="g5243"
               transform="translate(6940.5576,7236.5488)"><path
                 d="m 0,0 c -3.596,0 -6.689,-1.294 -9.206,-3.884 l 0,-0.07 -0.071,-0.073 c -2.662,-2.517 -3.956,-5.61 -3.956,-9.206 0,-0.014 0.002,-0.028 0.002,-0.042 0.01,3.578 1.303,6.656 3.954,9.163 l 0.071,0.073 0,0.071 c 2.518,2.59 5.61,3.885 9.206,3.885 3.667,0 6.76,-1.295 9.421,-3.956 1.482,-1.482 2.524,-3.135 3.158,-4.947 -0.627,1.843 -1.656,3.529 -3.159,5.032 C 6.76,-1.294 3.667,0 0,0"
                 style="fill:#000000;fill-opacity:1;fill-rule:nonzero;stroke:none"
                 id="path5245"
                 inkscape:connector-curvature="0" /></g></g></g><g
           style="fill:#000000"
           id="g5247"
           transform="matrix(0.51783122,0,0,-0.51813911,-3680.762,3716.9246)"><g
             style="fill:#000000"
             id="g5249"
             clip-path="url(#clipPath100)"><g
               style="fill:#000000"
               id="g5251"><g
                 style="fill:#000000"
                 id="g5253"><path
                   d="m 6953.258,7227.208 c -0.039,0.119 -0.079,0.237 -0.121,0.356 l 0,0 c 0.04,-0.119 0.082,-0.237 0.121,-0.356 m 0.111,-0.359 c -0.033,0.121 -0.071,0.24 -0.111,0.359 l 0,0 c 0.039,-0.119 0.076,-0.238 0.111,-0.359"
                   style="fill:#000000;stroke:none"
                   id="path5255"
                   inkscape:connector-curvature="0" /></g></g></g></g><g
           style="fill:#000000"
           id="g5257"
           transform="matrix(0.51783122,0,0,-0.51813911,-3680.762,3716.9246)"><g
             style="fill:#000000"
             id="g5259"
             clip-path="url(#clipPath120)"><g
               style="fill:#000000"
               id="g5261"><g
                 style="fill:#000000"
                 id="g5263"><path
                   d="m 6917.8,7249.421 c -0.571,-0.517 -1.145,-1.019 -1.695,-1.579 l 0,0 c -0.072,0 -0.072,0 -0.144,-0.076 l 0,0 c -6.834,-6.83 -10.213,-14.958 -10.213,-24.452 l 0,0 c 0,-0.014 0,-0.025 0,-0.04 l 0,0 c 0.011,9.476 3.387,17.589 10.21,24.409 l 0,0 c 0.072,0.072 0.072,0.072 0.144,0.072 l 0,0 c 0.763,0.781 1.554,1.507 2.356,2.198 l 0,0 c -0.22,-0.178 -0.437,-0.348 -0.661,-0.532"
                   style="fill:#000000;stroke:none"
                   id="path5265"
                   inkscape:connector-curvature="0" /></g></g></g></g><g
           style="fill:#000000"
           id="g5267"
           transform="matrix(0.51783122,0,0,-0.51813911,-3680.762,3716.9246)"><g
             style="fill:#000000"
             id="g5269"
             clip-path="url(#clipPath140)"><g
               style="fill:#000000"
               id="g5271"><g
                 style="fill:#000000"
                 id="g5273"><path
                   d="m 6927.323,7223.231 c 0,-3.668 1.294,-6.758 3.957,-9.421 l 0,0 0.073,0 0,-0.073 c 2.515,-2.515 5.608,-3.809 9.204,-3.809 l 0,0 c 2.949,0 5.537,-1.08 7.622,-3.165 l 0,0 c 2.078,-2.075 3.155,-4.652 3.166,-7.582 l 0,0 c 0,0.014 0,0.028 0,0.043 l 0,0 c 0,2.949 -1.081,5.54 -3.166,7.625 l 0,0 c -2.085,2.086 -4.673,3.162 -7.622,3.162 l 0,0 c -3.596,0 -6.689,1.294 -9.204,3.813 l 0,0 0,0.069 -0.073,0 c -2.653,2.652 -3.943,5.732 -3.953,9.381 l 0,0 c 0,-0.014 0,-0.028 0,-0.043"
                   style="fill:#000000;stroke:none"
                   id="path5275"
                   inkscape:connector-curvature="0" /></g></g></g></g><g
           style="fill:#000000"
           id="g5277"
           transform="matrix(0.51783122,0,0,-0.51813911,-3680.762,3716.9246)"><g
             style="fill:#000000"
             id="g5279"
             clip-path="url(#clipPath192)"><g
               style="fill:#000000"
               id="g5281"
               transform="translate(6975.8379,7171.8584)"><path
                 d="m 0,0 c -0.26,1.039 -0.405,2.122 -0.405,3.261 l 0,23.929 c 0,0.031 0.005,0.061 0.005,0.092 l 0,6.738 0,17.353 c 0,9.565 -3.381,17.692 -10.213,24.524 -6.832,6.833 -15.102,10.285 -24.667,10.285 -8.472,0 -15.867,-2.721 -22.095,-8.087 26.157,20.941 33.38,-12.465 34.994,-23.376 -0.023,0.093 -0.062,0.178 -0.087,0.271 0.322,-1.144 0.492,-2.348 0.492,-3.617 l 0,-23.928 c 0,-0.031 -0.004,-0.061 -0.004,-0.091 l 0,-24.093 c 0,-9.565 3.38,-17.693 10.212,-24.525 6.832,-6.832 15.102,-10.283 24.668,-10.283 8.78,0 16.392,2.943 22.758,8.704 C 8.956,-44.894 1.626,-11.004 0,0"
                 style="fill:#000000;fill-opacity:1;fill-rule:nonzero;stroke:none"
                 id="path5283"
                 inkscape:connector-curvature="0" /></g></g></g></g></clipPath><radialGradient
       inkscape:collect="always"
       xlink:href="#linearGradient5295"
       id="radialGradient5301"
       cx="36"
       cy="38.875"
       fx="36"
       fy="38.875"
       r="36.5"
       gradientTransform="matrix(1,0,0,0.90753425,-107.25,-19.405394)"
       gradientUnits="userSpaceOnUse" /><clipPath
       clipPathUnits="userSpaceOnUse"
       id="clipPath5309"><g
         style="fill:#000000"
         id="g5311"
         transform="matrix(0.51783122,0,0,-0.51813911,-3680.762,3716.9246)"><g
           style="fill:#000000"
           id="g5313"
           clip-path="url(#clipPath192)"><g
             style="fill:#000000"
             id="g5315"
             transform="translate(6975.8379,7171.8584)"><path
               d="m 0,0 c -0.26,1.039 -0.405,2.122 -0.405,3.261 l 0,23.929 c 0,0.031 0.005,0.061 0.005,0.092 l 0,6.738 0,17.353 c 0,9.565 -3.381,17.692 -10.213,24.524 -6.832,6.833 -15.102,10.285 -24.667,10.285 -8.472,0 -15.867,-2.721 -22.095,-8.087 26.157,20.941 33.38,-12.465 34.994,-23.376 -0.023,0.093 -0.062,0.178 -0.087,0.271 0.322,-1.144 0.492,-2.348 0.492,-3.617 l 0,-23.928 c 0,-0.031 -0.004,-0.061 -0.004,-0.091 l 0,-24.093 c 0,-9.565 3.38,-17.693 10.212,-24.525 6.832,-6.832 15.102,-10.283 24.668,-10.283 8.78,0 16.392,2.943 22.758,8.704 C 8.956,-44.894 1.626,-11.004 0,0"
               style="fill:#000000;fill-opacity:1;fill-rule:nonzero;stroke:none"
               id="path5317"
               inkscape:connector-curvature="0" /></g></g></g></clipPath><filter
       id="filter5325"
       inkscape:label="Desaturate"
       x="0"
       y="0"
       width="1"
       height="1"
       inkscape:menu="Color"
       inkscape:menu-tooltip="Render in shades of gray by reducing saturation to zero"
       color-interpolation-filters="sRGB"><feColorMatrix
         id="feColorMatrix5327"
         type="matrix"
         values="2 0 0 0 0 0 0 0 0 0 0 0 0 0 0 0 0 0 1 0 " /></filter><filter
       id="filter5413"
       inkscape:label="Metallized paint"
       inkscape:menu="Materials"
       inkscape:menu-tooltip="Metallized effect with a soft lighting, slightly translucent at the edges"
       height="1.1"
       width="1.1"
       y="-0.050000001"
       x="-0.050000001"
       color-interpolation-filters="sRGB"><feGaussianBlur
         id="feGaussianBlur5415"
         stdDeviation="1"
         result="result1" /><feComposite
         id="feComposite5417"
         in2="result1"
         in="result1"
         result="result4"
         operator="in" /><feBlend
         id="feBlend5419"
         in2="result4"
         in="result1"
         mode="screen"
         result="result5" /><feGaussianBlur
         id="feGaussianBlur5421"
         stdDeviation="8"
         result="result6"
         in="result5" /><feComposite
         id="feComposite5423"
         in2="result5"
         operator="atop"
         in="result6"
         result="result8" /><feComposite
         id="feComposite5425"
         in2="result8"
         operator="in"
         result="fbSourceGraphic"
         in="result6" /><feGaussianBlur
         id="feGaussianBlur5427"
         result="result0"
         in="fbSourceGraphic"
         stdDeviation="2.5" /><feSpecularLighting
         id="feSpecularLighting5429"
         specularExponent="45"
         specularConstant="1.5"
         surfaceScale="-2.96735907"
         lighting-color="#ffffff"
         result="result1"
         in="result0"><fePointLight
           id="fePointLight5431"
           z="21000"
           y="-9000"
           x="-6000" /></feSpecularLighting><feComposite
         id="feComposite5433"
         in2="fbSourceGraphic"
         operator="in"
         result="result2"
         in="result1" /><feComposite
         id="feComposite5435"
         in2="result2"
         k3="1"
         k2="1"
         operator="arithmetic"
         result="result4"
         in="fbSourceGraphic"
         k1="0"
         k4="0" /><feComposite
         id="feComposite5437"
         in2="result4"
         operator="in"
         result="result91" /><feBlend
         id="feBlend5439"
         in2="result91"
         mode="multiply" /></filter></defs><sodipodi:namedview
     pagecolor="#ffffff"
     bordercolor="#666666"
     borderopacity="1"
     objecttolerance="10"
     gridtolerance="10"
     guidetolerance="10"
     inkscape:pageopacity="0"
     inkscape:pageshadow="2"
     inkscape:window-width="1920"
     inkscape:window-height="1176"
     id="namedview4"
     showgrid="false"
     inkscape:zoom="5.6568542"
     inkscape:cx="26.085638"
     inkscape:cy="53.823758"
     inkscape:window-x="1600"
     inkscape:window-y="24"
     inkscape:window-maximized="1"
     inkscape:current-layer="layer4"
     fit-margin-top="100"
     fit-margin-left="100"
     fit-margin-right="100"
     fit-margin-bottom="100"><inkscape:grid
       type="xygrid"
       id="grid3138"
       empspacing="5"
       visible="true"
       enabled="true"
       snapvisiblegridlinesonly="true" /></sodipodi:namedview><g
     inkscape:groupmode="layer"
     id="layer2"
     inkscape:label="shadow"
     sodipodi:insensitive="true"
     style="display:inline"><g
       style="filter:url(#filter3964)"
       transform="matrix(0.51783122,0,0,-0.51813911,-3570.512,3766.1746)"
       id="g4010"><g
         id="g4012"><g
           id="g4014"
           clip-path="url(#clipPath64)"><g
             id="g4016"><g
               id="g4018"><path
                 d="m 6981.116,7206.835 c -2.089,-2.085 -3.165,-4.677 -3.165,-7.622 l 0,0 c 0,-2.949 1.076,-5.54 3.165,-7.626 l 0,0 c 2.082,-2.085 4.673,-3.165 7.622,-3.165 l 0,0 c 3.596,0 6.686,-1.29 9.205,-3.809 l 0,0 0,-0.072 0.072,0 c 2.66,-2.66 3.957,-5.754 3.957,-9.422 l 0,0 c 0,-3.596 -1.297,-6.689 -3.957,-9.205 l 0,0 -0.072,-0.072 0,-0.072 c -2.519,-2.591 -5.609,-3.882 -9.205,-3.882 l 0,0 c -3.668,0 -6.761,1.291 -9.422,3.954 l 0,0 c -1.767,1.767 -2.92,3.777 -3.48,6.017 l 0,0 c 1.626,-11.004 8.959,-44.896 35.659,-22.843 l 0,0 c 0.571,0.516 1.146,1.019 1.695,1.579 l 0,0 c 0.072,0 0.072,0 0.144,0.072 l 0,0 c 6.831,6.834 10.213,14.958 10.213,24.452 l 0,0 c 0,9.566 -3.455,17.766 -10.285,24.669 l 0,0 c -6.762,6.834 -14.958,10.209 -24.524,10.209 l 0,0 c -2.949,0 -5.54,-1.077 -7.622,-3.162"
                 style="fill:url(#linearGradient72);stroke:none"
                 id="path4020"
                 inkscape:connector-curvature="0" /></g></g></g></g><g
         id="g4022"><g
           id="g4024"
           clip-path="url(#clipPath84)"><g
             id="g4026"
             transform="translate(6940.5576,7188.4375)"><path
               d="m 0,0 c -9.565,0 -17.765,3.378 -24.524,10.21 -6.822,6.895 -10.273,15.08 -10.283,24.626 0,-0.014 -0.002,-0.028 -0.002,-0.042 0,-9.565 3.453,-17.762 10.285,-24.668 C -17.764,3.294 -9.565,-0.085 0,-0.085 c 2.949,0 5.538,1.077 7.623,3.165 2.085,2.085 3.165,4.674 3.165,7.623 0,0.014 -0.002,0.027 -0.002,0.041 C 10.776,7.814 9.699,5.24 7.623,3.164 5.538,1.076 2.948,0 0,0"
               style="fill:#7aa13d;fill-opacity:1;fill-rule:nonzero;stroke:none"
               id="path4028"
               inkscape:connector-curvature="0" /></g><g
             id="g4030"
             transform="translate(6940.5576,7236.5488)"><path
               d="m 0,0 c -3.596,0 -6.689,-1.294 -9.206,-3.884 l 0,-0.07 -0.071,-0.073 c -2.662,-2.517 -3.956,-5.61 -3.956,-9.206 0,-0.014 0.002,-0.028 0.002,-0.042 0.01,3.578 1.303,6.656 3.954,9.163 l 0.071,0.073 0,0.071 c 2.518,2.59 5.61,3.885 9.206,3.885 3.667,0 6.76,-1.295 9.421,-3.956 1.482,-1.482 2.524,-3.135 3.158,-4.947 -0.627,1.843 -1.656,3.529 -3.159,5.032 C 6.76,-1.294 3.667,0 0,0"
               style="fill:#7aa13d;fill-opacity:1;fill-rule:nonzero;stroke:none"
               id="path4032"
               inkscape:connector-curvature="0" /></g></g></g><g
         id="g4034"><g
           id="g4036"
           clip-path="url(#clipPath100)"><g
             id="g4038"><g
               id="g4040"><path
                 d="m 6953.258,7227.208 c -0.039,0.119 -0.079,0.237 -0.121,0.356 l 0,0 c 0.04,-0.119 0.082,-0.237 0.121,-0.356 m 0.111,-0.359 c -0.033,0.121 -0.071,0.24 -0.111,0.359 l 0,0 c 0.039,-0.119 0.076,-0.238 0.111,-0.359"
                 style="fill:url(#linearGradient108);stroke:none"
                 id="path4042"
                 inkscape:connector-curvature="0" /></g></g></g></g><g
         id="g4044"><g
           id="g4046"
           clip-path="url(#clipPath120)"><g
             id="g4048"><g
               id="g4050"><path
                 d="m 6917.8,7249.421 c -0.571,-0.517 -1.145,-1.019 -1.695,-1.579 l 0,0 c -0.072,0 -0.072,0 -0.144,-0.076 l 0,0 c -6.834,-6.83 -10.213,-14.958 -10.213,-24.452 l 0,0 c 0,-0.014 0,-0.025 0,-0.04 l 0,0 c 0.011,9.476 3.387,17.589 10.21,24.409 l 0,0 c 0.072,0.072 0.072,0.072 0.144,0.072 l 0,0 c 0.763,0.781 1.554,1.507 2.356,2.198 l 0,0 c -0.22,-0.178 -0.437,-0.348 -0.661,-0.532"
                 style="fill:url(#linearGradient128);stroke:none"
                 id="path4052"
                 inkscape:connector-curvature="0" /></g></g></g></g><g
         id="g4054"><g
           id="g4056"
           clip-path="url(#clipPath140)"><g
             id="g4058"><g
               id="g4060"><path
                 d="m 6927.323,7223.231 c 0,-3.668 1.294,-6.758 3.957,-9.421 l 0,0 0.073,0 0,-0.073 c 2.515,-2.515 5.608,-3.809 9.204,-3.809 l 0,0 c 2.949,0 5.537,-1.08 7.622,-3.165 l 0,0 c 2.078,-2.075 3.155,-4.652 3.166,-7.582 l 0,0 c 0,0.014 0,0.028 0,0.043 l 0,0 c 0,2.949 -1.081,5.54 -3.166,7.625 l 0,0 c -2.085,2.086 -4.673,3.162 -7.622,3.162 l 0,0 c -3.596,0 -6.689,1.294 -9.204,3.813 l 0,0 0,0.069 -0.073,0 c -2.653,2.652 -3.943,5.732 -3.953,9.381 l 0,0 c 0,-0.014 0,-0.028 0,-0.043"
                 style="fill:url(#linearGradient148);stroke:none"
                 id="path4062"
                 inkscape:connector-curvature="0" /></g></g></g></g><g
         id="g4064"><g
           id="g4066"
           clip-path="url(#clipPath160)"><g
             id="g4068"
             transform="translate(6918.4634,7249.9536)"><path
               d="m 0,0 c -0.804,-0.692 -1.594,-1.417 -2.358,-2.198 -0.072,0 -0.072,0 -0.144,-0.071 -6.822,-6.822 -10.201,-14.936 -10.21,-24.411 0.009,-9.547 3.461,-17.731 10.282,-24.626 6.76,-6.832 14.959,-10.21 24.524,-10.21 2.948,0 5.538,1.076 7.623,3.164 2.076,2.076 3.153,4.65 3.163,7.58 -0.01,2.931 -1.087,5.506 -3.163,7.582 -2.085,2.085 -4.674,3.164 -7.623,3.164 -3.596,0 -6.688,1.295 -9.205,3.811 l 0,0.072 -0.072,0 c -2.662,2.661 -3.956,5.754 -3.956,9.421 0,0.014 0.002,0.028 0.002,0.042 0,0.014 -0.002,0.028 -0.002,0.042 0,3.596 1.294,6.689 3.956,9.206 l 0.072,0.073 0,0.07 c 2.516,2.59 5.609,3.884 9.205,3.884 3.668,0 6.76,-1.294 9.421,-3.954 1.503,-1.502 2.531,-3.188 3.158,-5.032 0.083,-0.236 0.165,-0.472 0.233,-0.714 0.025,-0.093 0.065,-0.178 0.088,-0.271 C 33.38,-12.465 26.157,20.94 0,0"
               style="fill:#7aa13d;fill-opacity:1;fill-rule:nonzero;stroke:none"
               id="path4070"
               inkscape:connector-curvature="0" /></g></g></g><g
         id="g4072"><g
           id="g4074"
           clip-path="url(#clipPath172)"><g
             id="g4076"><g
               id="g4078"><path
                 d="m 6918.461,7249.953 c -0.802,-0.691 -1.593,-1.417 -2.356,-2.198 l 0,0 c -0.072,0 -0.072,0 -0.144,-0.072 l 0,0 c -6.823,-6.82 -10.199,-14.933 -10.21,-24.409 l 0,0 c 0.011,-9.547 3.459,-17.733 10.282,-24.628 l 0,0 c 6.758,-6.831 14.958,-10.21 24.524,-10.21 l 0,0 c 2.949,0 5.537,1.077 7.622,3.166 l 0,0 c 2.078,2.074 3.155,4.651 3.166,7.579 l 0,0 c -0.011,2.93 -1.088,5.507 -3.166,7.582 l 0,0 c -2.085,2.085 -4.673,3.165 -7.622,3.165 l 0,0 c -3.596,0 -6.689,1.294 -9.204,3.809 l 0,0 0,0.073 -0.073,0 c -2.663,2.663 -3.957,5.753 -3.957,9.421 l 0,0 c 0,0.015 0,0.029 0,0.043 l 0,0 c 0,0.015 0,0.026 0,0.04 l 0,0 c 0,3.596 1.294,6.689 3.957,9.208 l 0,0 0.073,0.073 0,0.069 c 2.515,2.591 5.608,3.884 9.204,3.884 l 0,0 c 3.668,0 6.762,-1.293 9.422,-3.953 l 0,0 c 1.503,-1.504 2.529,-3.188 3.158,-5.031 l 0,0 c 0.083,-0.238 0.163,-0.473 0.232,-0.715 l 0,0 c 0.025,-0.094 0.065,-0.178 0.086,-0.271 l 0,0 c -1.241,8.4 -5.809,30.134 -19.782,30.134 l 0,0 c -4.176,10e-4 -9.193,-1.941 -15.212,-6.759"
                 style="fill:url(#linearGradient180);stroke:none"
                 id="path4080"
                 inkscape:connector-curvature="0" /></g></g></g></g><g
         id="g4082"><g
           id="g4084"
           clip-path="url(#clipPath192)"><g
             id="g4086"
             transform="translate(6975.8379,7171.8584)"><path
               d="m 0,0 c -0.26,1.039 -0.405,2.122 -0.405,3.261 l 0,23.929 c 0,0.031 0.005,0.061 0.005,0.092 l 0,6.738 0,17.353 c 0,9.565 -3.381,17.692 -10.213,24.524 -6.832,6.833 -15.102,10.285 -24.667,10.285 -8.472,0 -15.867,-2.721 -22.095,-8.087 26.157,20.941 33.38,-12.465 34.994,-23.376 -0.023,0.093 -0.062,0.178 -0.087,0.271 0.322,-1.144 0.492,-2.348 0.492,-3.617 l 0,-23.928 c 0,-0.031 -0.004,-0.061 -0.004,-0.091 l 0,-24.093 c 0,-9.565 3.38,-17.693 10.212,-24.525 6.832,-6.832 15.102,-10.283 24.668,-10.283 8.78,0 16.392,2.943 22.758,8.704 C 8.956,-44.894 1.626,-11.004 0,0"
               style="fill:#7aa13d;fill-opacity:1;fill-rule:nonzero;stroke:none"
               id="path4088"
               inkscape:connector-curvature="0" /></g></g></g></g></g><g
     id="g10"
     inkscape:groupmode="layer"
     inkscape:label="turb"
     transform="matrix(1.25,0,0,-1.25,-8532.185,8897.3892)"
     style="display:inline"
     sodipodi:insensitive="true"><g
       id="g3076"
       transform="matrix(0.41426498,0,0,0.41451129,3969.3384,4104.9717)"
       style="filter:url(#filter3980)"><g
         id="g60"><g
           clip-path="url(#clipPath64)"
           id="g62"><g
             id="g68"><g
               id="g70"><path
                 inkscape:connector-curvature="0"
                 id="path78"
                 style="fill:url(#linearGradient72);stroke:none"
                 d="m 6981.116,7206.835 c -2.089,-2.085 -3.165,-4.677 -3.165,-7.622 l 0,0 c 0,-2.949 1.076,-5.54 3.165,-7.626 l 0,0 c 2.082,-2.085 4.673,-3.165 7.622,-3.165 l 0,0 c 3.596,0 6.686,-1.29 9.205,-3.809 l 0,0 0,-0.072 0.072,0 c 2.66,-2.66 3.957,-5.754 3.957,-9.422 l 0,0 c 0,-3.596 -1.297,-6.689 -3.957,-9.205 l 0,0 -0.072,-0.072 0,-0.072 c -2.519,-2.591 -5.609,-3.882 -9.205,-3.882 l 0,0 c -3.668,0 -6.761,1.291 -9.422,3.954 l 0,0 c -1.767,1.767 -2.92,3.777 -3.48,6.017 l 0,0 c 1.626,-11.004 8.959,-44.896 35.659,-22.843 l 0,0 c 0.571,0.516 1.146,1.019 1.695,1.579 l 0,0 c 0.072,0 0.072,0 0.144,0.072 l 0,0 c 6.831,6.834 10.213,14.958 10.213,24.452 l 0,0 c 0,9.566 -3.455,17.766 -10.285,24.669 l 0,0 c -6.762,6.834 -14.958,10.209 -24.524,10.209 l 0,0 c -2.949,0 -5.54,-1.077 -7.622,-3.162" /></g></g></g></g><g
         id="g80"><g
           clip-path="url(#clipPath84)"
           id="g82"><g
             transform="translate(6940.5576,7188.4375)"
             id="g88"><path
               inkscape:connector-curvature="0"
               id="path90"
               style="fill:#7aa13d;fill-opacity:1;fill-rule:nonzero;stroke:none"
               d="m 0,0 c -9.565,0 -17.765,3.378 -24.524,10.21 -6.822,6.895 -10.273,15.08 -10.283,24.626 0,-0.014 -0.002,-0.028 -0.002,-0.042 0,-9.565 3.453,-17.762 10.285,-24.668 C -17.764,3.294 -9.565,-0.085 0,-0.085 c 2.949,0 5.538,1.077 7.623,3.165 2.085,2.085 3.165,4.674 3.165,7.623 0,0.014 -0.002,0.027 -0.002,0.041 C 10.776,7.814 9.699,5.24 7.623,3.164 5.538,1.076 2.948,0 0,0" /></g><g
             transform="translate(6940.5576,7236.5488)"
             id="g92"><path
               inkscape:connector-curvature="0"
               id="path94"
               style="fill:#7aa13d;fill-opacity:1;fill-rule:nonzero;stroke:none"
               d="m 0,0 c -3.596,0 -6.689,-1.294 -9.206,-3.884 l 0,-0.07 -0.071,-0.073 c -2.662,-2.517 -3.956,-5.61 -3.956,-9.206 0,-0.014 0.002,-0.028 0.002,-0.042 0.01,3.578 1.303,6.656 3.954,9.163 l 0.071,0.073 0,0.071 c 2.518,2.59 5.61,3.885 9.206,3.885 3.667,0 6.76,-1.295 9.421,-3.956 1.482,-1.482 2.524,-3.135 3.158,-4.947 -0.627,1.843 -1.656,3.529 -3.159,5.032 C 6.76,-1.294 3.667,0 0,0" /></g></g></g><g
         id="g96"><g
           clip-path="url(#clipPath100)"
           id="g98"><g
             id="g104"><g
               id="g106"><path
                 inkscape:connector-curvature="0"
                 id="path114"
                 style="fill:url(#linearGradient108);stroke:none"
                 d="m 6953.258,7227.208 c -0.039,0.119 -0.079,0.237 -0.121,0.356 l 0,0 c 0.04,-0.119 0.082,-0.237 0.121,-0.356 m 0.111,-0.359 c -0.033,0.121 -0.071,0.24 -0.111,0.359 l 0,0 c 0.039,-0.119 0.076,-0.238 0.111,-0.359" /></g></g></g></g><g
         id="g116"><g
           clip-path="url(#clipPath120)"
           id="g118"><g
             id="g124"><g
               id="g126"><path
                 inkscape:connector-curvature="0"
                 id="path134"
                 style="fill:url(#linearGradient128);stroke:none"
                 d="m 6917.8,7249.421 c -0.571,-0.517 -1.145,-1.019 -1.695,-1.579 l 0,0 c -0.072,0 -0.072,0 -0.144,-0.076 l 0,0 c -6.834,-6.83 -10.213,-14.958 -10.213,-24.452 l 0,0 c 0,-0.014 0,-0.025 0,-0.04 l 0,0 c 0.011,9.476 3.387,17.589 10.21,24.409 l 0,0 c 0.072,0.072 0.072,0.072 0.144,0.072 l 0,0 c 0.763,0.781 1.554,1.507 2.356,2.198 l 0,0 c -0.22,-0.178 -0.437,-0.348 -0.661,-0.532" /></g></g></g></g><g
         id="g136"><g
           clip-path="url(#clipPath140)"
           id="g138"><g
             id="g144"><g
               id="g146"><path
                 inkscape:connector-curvature="0"
                 id="path154"
                 style="fill:url(#linearGradient148);stroke:none"
                 d="m 6927.323,7223.231 c 0,-3.668 1.294,-6.758 3.957,-9.421 l 0,0 0.073,0 0,-0.073 c 2.515,-2.515 5.608,-3.809 9.204,-3.809 l 0,0 c 2.949,0 5.537,-1.08 7.622,-3.165 l 0,0 c 2.078,-2.075 3.155,-4.652 3.166,-7.582 l 0,0 c 0,0.014 0,0.028 0,0.043 l 0,0 c 0,2.949 -1.081,5.54 -3.166,7.625 l 0,0 c -2.085,2.086 -4.673,3.162 -7.622,3.162 l 0,0 c -3.596,0 -6.689,1.294 -9.204,3.813 l 0,0 0,0.069 -0.073,0 c -2.653,2.652 -3.943,5.732 -3.953,9.381 l 0,0 c 0,-0.014 0,-0.028 0,-0.043" /></g></g></g></g><g
         id="g156"><g
           clip-path="url(#clipPath160)"
           id="g158"><g
             transform="translate(6918.4634,7249.9536)"
             id="g164"><path
               inkscape:connector-curvature="0"
               id="path166"
               style="fill:#7aa13d;fill-opacity:1;fill-rule:nonzero;stroke:none"
               d="m 0,0 c -0.804,-0.692 -1.594,-1.417 -2.358,-2.198 -0.072,0 -0.072,0 -0.144,-0.071 -6.822,-6.822 -10.201,-14.936 -10.21,-24.411 0.009,-9.547 3.461,-17.731 10.282,-24.626 6.76,-6.832 14.959,-10.21 24.524,-10.21 2.948,0 5.538,1.076 7.623,3.164 2.076,2.076 3.153,4.65 3.163,7.58 -0.01,2.931 -1.087,5.506 -3.163,7.582 -2.085,2.085 -4.674,3.164 -7.623,3.164 -3.596,0 -6.688,1.295 -9.205,3.811 l 0,0.072 -0.072,0 c -2.662,2.661 -3.956,5.754 -3.956,9.421 0,0.014 0.002,0.028 0.002,0.042 0,0.014 -0.002,0.028 -0.002,0.042 0,3.596 1.294,6.689 3.956,9.206 l 0.072,0.073 0,0.07 c 2.516,2.59 5.609,3.884 9.205,3.884 3.668,0 6.76,-1.294 9.421,-3.954 1.503,-1.502 2.531,-3.188 3.158,-5.032 0.083,-0.236 0.165,-0.472 0.233,-0.714 0.025,-0.093 0.065,-0.178 0.088,-0.271 C 33.38,-12.465 26.157,20.94 0,0" /></g></g></g><g
         id="g168"><g
           clip-path="url(#clipPath172)"
           id="g170"><g
             id="g176"><g
               id="g178"><path
                 inkscape:connector-curvature="0"
                 id="path186"
                 style="fill:url(#linearGradient180);stroke:none"
                 d="m 6918.461,7249.953 c -0.802,-0.691 -1.593,-1.417 -2.356,-2.198 l 0,0 c -0.072,0 -0.072,0 -0.144,-0.072 l 0,0 c -6.823,-6.82 -10.199,-14.933 -10.21,-24.409 l 0,0 c 0.011,-9.547 3.459,-17.733 10.282,-24.628 l 0,0 c 6.758,-6.831 14.958,-10.21 24.524,-10.21 l 0,0 c 2.949,0 5.537,1.077 7.622,3.166 l 0,0 c 2.078,2.074 3.155,4.651 3.166,7.579 l 0,0 c -0.011,2.93 -1.088,5.507 -3.166,7.582 l 0,0 c -2.085,2.085 -4.673,3.165 -7.622,3.165 l 0,0 c -3.596,0 -6.689,1.294 -9.204,3.809 l 0,0 0,0.073 -0.073,0 c -2.663,2.663 -3.957,5.753 -3.957,9.421 l 0,0 c 0,0.015 0,0.029 0,0.043 l 0,0 c 0,0.015 0,0.026 0,0.04 l 0,0 c 0,3.596 1.294,6.689 3.957,9.208 l 0,0 0.073,0.073 0,0.069 c 2.515,2.591 5.608,3.884 9.204,3.884 l 0,0 c 3.668,0 6.762,-1.293 9.422,-3.953 l 0,0 c 1.503,-1.504 2.529,-3.188 3.158,-5.031 l 0,0 c 0.083,-0.238 0.163,-0.473 0.232,-0.715 l 0,0 c 0.025,-0.094 0.065,-0.178 0.086,-0.271 l 0,0 c -1.241,8.4 -5.809,30.134 -19.782,30.134 l 0,0 c -4.176,10e-4 -9.193,-1.941 -15.212,-6.759" /></g></g></g></g><g
         id="g188"><g
           clip-path="url(#clipPath192)"
           id="g190"><g
             transform="translate(6975.8379,7171.8584)"
             id="g196"><path
               inkscape:connector-curvature="0"
               id="path198"
               style="fill:#7aa13d;fill-opacity:1;fill-rule:nonzero;stroke:none"
               d="m 0,0 c -0.26,1.039 -0.405,2.122 -0.405,3.261 l 0,23.929 c 0,0.031 0.005,0.061 0.005,0.092 l 0,6.738 0,17.353 c 0,9.565 -3.381,17.692 -10.213,24.524 -6.832,6.833 -15.102,10.285 -24.667,10.285 -8.472,0 -15.867,-2.721 -22.095,-8.087 26.157,20.941 33.38,-12.465 34.994,-23.376 -0.023,0.093 -0.062,0.178 -0.087,0.271 0.322,-1.144 0.492,-2.348 0.492,-3.617 l 0,-23.928 c 0,-0.031 -0.004,-0.061 -0.004,-0.091 l 0,-24.093 c 0,-9.565 3.38,-17.693 10.212,-24.525 6.832,-6.832 15.102,-10.283 24.668,-10.283 8.78,0 16.392,2.943 22.758,8.704 C 8.956,-44.894 1.626,-11.004 0,0" /></g></g></g></g></g><g
     inkscape:groupmode="layer"
     id="layer1"
     inkscape:label="up"
     style="opacity:0.87966805;display:inline"><g
       transform="matrix(0.51783122,0,0,-0.51813911,-3570.512,3766.1746)"
       id="g4090"><g
         id="g4092"><g
           id="g4094"
           clip-path="url(#clipPath64)"><g
             id="g4096"><g
               id="g4098"><path
                 d="m 6981.116,7206.835 c -2.089,-2.085 -3.165,-4.677 -3.165,-7.622 l 0,0 c 0,-2.949 1.076,-5.54 3.165,-7.626 l 0,0 c 2.082,-2.085 4.673,-3.165 7.622,-3.165 l 0,0 c 3.596,0 6.686,-1.29 9.205,-3.809 l 0,0 0,-0.072 0.072,0 c 2.66,-2.66 3.957,-5.754 3.957,-9.422 l 0,0 c 0,-3.596 -1.297,-6.689 -3.957,-9.205 l 0,0 -0.072,-0.072 0,-0.072 c -2.519,-2.591 -5.609,-3.882 -9.205,-3.882 l 0,0 c -3.668,0 -6.761,1.291 -9.422,3.954 l 0,0 c -1.767,1.767 -2.92,3.777 -3.48,6.017 l 0,0 c 1.626,-11.004 8.959,-44.896 35.659,-22.843 l 0,0 c 0.571,0.516 1.146,1.019 1.695,1.579 l 0,0 c 0.072,0 0.072,0 0.144,0.072 l 0,0 c 6.831,6.834 10.213,14.958 10.213,24.452 l 0,0 c 0,9.566 -3.455,17.766 -10.285,24.669 l 0,0 c -6.762,6.834 -14.958,10.209 -24.524,10.209 l 0,0 c -2.949,0 -5.54,-1.077 -7.622,-3.162"
                 style="fill:url(#linearGradient72);stroke:none"
                 id="path4100"
                 inkscape:connector-curvature="0" /></g></g></g></g><g
         id="g4102"><g
           id="g4104"
           clip-path="url(#clipPath84)"><g
             id="g4106"
             transform="translate(6940.5576,7188.4375)"><path
               d="m 0,0 c -9.565,0 -17.765,3.378 -24.524,10.21 -6.822,6.895 -10.273,15.08 -10.283,24.626 0,-0.014 -0.002,-0.028 -0.002,-0.042 0,-9.565 3.453,-17.762 10.285,-24.668 C -17.764,3.294 -9.565,-0.085 0,-0.085 c 2.949,0 5.538,1.077 7.623,3.165 2.085,2.085 3.165,4.674 3.165,7.623 0,0.014 -0.002,0.027 -0.002,0.041 C 10.776,7.814 9.699,5.24 7.623,3.164 5.538,1.076 2.948,0 0,0"
               style="fill:#7aa13d;fill-opacity:1;fill-rule:nonzero;stroke:none"
               id="path4108"
               inkscape:connector-curvature="0" /></g><g
             id="g4110"
             transform="translate(6940.5576,7236.5488)"><path
               d="m 0,0 c -3.596,0 -6.689,-1.294 -9.206,-3.884 l 0,-0.07 -0.071,-0.073 c -2.662,-2.517 -3.956,-5.61 -3.956,-9.206 0,-0.014 0.002,-0.028 0.002,-0.042 0.01,3.578 1.303,6.656 3.954,9.163 l 0.071,0.073 0,0.071 c 2.518,2.59 5.61,3.885 9.206,3.885 3.667,0 6.76,-1.295 9.421,-3.956 1.482,-1.482 2.524,-3.135 3.158,-4.947 -0.627,1.843 -1.656,3.529 -3.159,5.032 C 6.76,-1.294 3.667,0 0,0"
               style="fill:#7aa13d;fill-opacity:1;fill-rule:nonzero;stroke:none"
               id="path4112"
               inkscape:connector-curvature="0" /></g></g></g><g
         id="g4114"><g
           id="g4116"
           clip-path="url(#clipPath100)"><g
             id="g4118"><g
               id="g4120"><path
                 d="m 6953.258,7227.208 c -0.039,0.119 -0.079,0.237 -0.121,0.356 l 0,0 c 0.04,-0.119 0.082,-0.237 0.121,-0.356 m 0.111,-0.359 c -0.033,0.121 -0.071,0.24 -0.111,0.359 l 0,0 c 0.039,-0.119 0.076,-0.238 0.111,-0.359"
                 style="fill:url(#linearGradient108);stroke:none"
                 id="path4122"
                 inkscape:connector-curvature="0" /></g></g></g></g><g
         id="g4124"><g
           id="g4126"
           clip-path="url(#clipPath120)"><g
             id="g4128"><g
               id="g4130"><path
                 d="m 6917.8,7249.421 c -0.571,-0.517 -1.145,-1.019 -1.695,-1.579 l 0,0 c -0.072,0 -0.072,0 -0.144,-0.076 l 0,0 c -6.834,-6.83 -10.213,-14.958 -10.213,-24.452 l 0,0 c 0,-0.014 0,-0.025 0,-0.04 l 0,0 c 0.011,9.476 3.387,17.589 10.21,24.409 l 0,0 c 0.072,0.072 0.072,0.072 0.144,0.072 l 0,0 c 0.763,0.781 1.554,1.507 2.356,2.198 l 0,0 c -0.22,-0.178 -0.437,-0.348 -0.661,-0.532"
                 style="fill:url(#linearGradient128);stroke:none"
                 id="path4132"
                 inkscape:connector-curvature="0" /></g></g></g></g><g
         id="g4134"><g
           id="g4136"
           clip-path="url(#clipPath140)"><g
             id="g4138"><g
               id="g4140"><path
                 d="m 6927.323,7223.231 c 0,-3.668 1.294,-6.758 3.957,-9.421 l 0,0 0.073,0 0,-0.073 c 2.515,-2.515 5.608,-3.809 9.204,-3.809 l 0,0 c 2.949,0 5.537,-1.08 7.622,-3.165 l 0,0 c 2.078,-2.075 3.155,-4.652 3.166,-7.582 l 0,0 c 0,0.014 0,0.028 0,0.043 l 0,0 c 0,2.949 -1.081,5.54 -3.166,7.625 l 0,0 c -2.085,2.086 -4.673,3.162 -7.622,3.162 l 0,0 c -3.596,0 -6.689,1.294 -9.204,3.813 l 0,0 0,0.069 -0.073,0 c -2.653,2.652 -3.943,5.732 -3.953,9.381 l 0,0 c 0,-0.014 0,-0.028 0,-0.043"
                 style="fill:url(#linearGradient148);stroke:none"
                 id="path4142"
                 inkscape:connector-curvature="0" /></g></g></g></g><g
         id="g4144"><g
           id="g4146"
           clip-path="url(#clipPath160)"><g
             id="g4148"
             transform="translate(6918.4634,7249.9536)"><path
               d="m 0,0 c -0.804,-0.692 -1.594,-1.417 -2.358,-2.198 -0.072,0 -0.072,0 -0.144,-0.071 -6.822,-6.822 -10.201,-14.936 -10.21,-24.411 0.009,-9.547 3.461,-17.731 10.282,-24.626 6.76,-6.832 14.959,-10.21 24.524,-10.21 2.948,0 5.538,1.076 7.623,3.164 2.076,2.076 3.153,4.65 3.163,7.58 -0.01,2.931 -1.087,5.506 -3.163,7.582 -2.085,2.085 -4.674,3.164 -7.623,3.164 -3.596,0 -6.688,1.295 -9.205,3.811 l 0,0.072 -0.072,0 c -2.662,2.661 -3.956,5.754 -3.956,9.421 0,0.014 0.002,0.028 0.002,0.042 0,0.014 -0.002,0.028 -0.002,0.042 0,3.596 1.294,6.689 3.956,9.206 l 0.072,0.073 0,0.07 c 2.516,2.59 5.609,3.884 9.205,3.884 3.668,0 6.76,-1.294 9.421,-3.954 1.503,-1.502 2.531,-3.188 3.158,-5.032 0.083,-0.236 0.165,-0.472 0.233,-0.714 0.025,-0.093 0.065,-0.178 0.088,-0.271 C 33.38,-12.465 26.157,20.94 0,0"
               style="fill:#7aa13d;fill-opacity:1;fill-rule:nonzero;stroke:none"
               id="path4150"
               inkscape:connector-curvature="0" /></g></g></g><g
         id="g4152"><g
           id="g4154"
           clip-path="url(#clipPath172)"><g
             id="g4156"><g
               id="g4158"><path
                 d="m 6918.461,7249.953 c -0.802,-0.691 -1.593,-1.417 -2.356,-2.198 l 0,0 c -0.072,0 -0.072,0 -0.144,-0.072 l 0,0 c -6.823,-6.82 -10.199,-14.933 -10.21,-24.409 l 0,0 c 0.011,-9.547 3.459,-17.733 10.282,-24.628 l 0,0 c 6.758,-6.831 14.958,-10.21 24.524,-10.21 l 0,0 c 2.949,0 5.537,1.077 7.622,3.166 l 0,0 c 2.078,2.074 3.155,4.651 3.166,7.579 l 0,0 c -0.011,2.93 -1.088,5.507 -3.166,7.582 l 0,0 c -2.085,2.085 -4.673,3.165 -7.622,3.165 l 0,0 c -3.596,0 -6.689,1.294 -9.204,3.809 l 0,0 0,0.073 -0.073,0 c -2.663,2.663 -3.957,5.753 -3.957,9.421 l 0,0 c 0,0.015 0,0.029 0,0.043 l 0,0 c 0,0.015 0,0.026 0,0.04 l 0,0 c 0,3.596 1.294,6.689 3.957,9.208 l 0,0 0.073,0.073 0,0.069 c 2.515,2.591 5.608,3.884 9.204,3.884 l 0,0 c 3.668,0 6.762,-1.293 9.422,-3.953 l 0,0 c 1.503,-1.504 2.529,-3.188 3.158,-5.031 l 0,0 c 0.083,-0.238 0.163,-0.473 0.232,-0.715 l 0,0 c 0.025,-0.094 0.065,-0.178 0.086,-0.271 l 0,0 c -1.241,8.4 -5.809,30.134 -19.782,30.134 l 0,0 c -4.176,10e-4 -9.193,-1.941 -15.212,-6.759"
                 style="fill:url(#linearGradient180);stroke:none"
                 id="path4160"
                 inkscape:connector-curvature="0" /></g></g></g></g><g
         id="g4162"><g
           id="g4164"
           clip-path="url(#clipPath192)"><g
             id="g4166"
             transform="translate(6975.8379,7171.8584)"><path
               d="m 0,0 c -0.26,1.039 -0.405,2.122 -0.405,3.261 l 0,23.929 c 0,0.031 0.005,0.061 0.005,0.092 l 0,6.738 0,17.353 c 0,9.565 -3.381,17.692 -10.213,24.524 -6.832,6.833 -15.102,10.285 -24.667,10.285 -8.472,0 -15.867,-2.721 -22.095,-8.087 26.157,20.941 33.38,-12.465 34.994,-23.376 -0.023,0.093 -0.062,0.178 -0.087,0.271 0.322,-1.144 0.492,-2.348 0.492,-3.617 l 0,-23.928 c 0,-0.031 -0.004,-0.061 -0.004,-0.091 l 0,-24.093 c 0,-9.565 3.38,-17.693 10.212,-24.525 6.832,-6.832 15.102,-10.283 24.668,-10.283 8.78,0 16.392,2.943 22.758,8.704 C 8.956,-44.894 1.626,-11.004 0,0"
               style="fill:#7aa13d;fill-opacity:1;fill-rule:nonzero;stroke:none"
               id="path4168"
               inkscape:connector-curvature="0" /></g></g></g></g></g><g
     inkscape:groupmode="layer"
     id="layer4"
     inkscape:label="light"
     style="opacity:0.82157677;display:inline"
     sodipodi:insensitive="true"><rect
       style="fill:url(#radialGradient5194);fill-opacity:1;stroke:none"
       id="rect4702"
       width="72.75"
       height="72.25"
       x="-1.5"
       y="2.9019986e-09"
       clip-path="url(#clipPath5231)" /></g><g
     inkscape:groupmode="layer"
     id="layer5"
     inkscape:label="dark"
     style="opacity:0.93775934;display:inline"
     sodipodi:insensitive="true"><g
       transform="translate(110,49.25)"
       id="g5001"
       style="opacity:0.43568462;display:inline;enable-background:new"><g
         style="fill:#000000"
         id="g5013"
         transform="matrix(0.51783122,0,0,-0.51813911,-3680.762,3716.9246)"><g
           style="fill:#000000"
           id="g5015"
           clip-path="url(#clipPath84)"><g
             style="fill:#000000"
             id="g5017"
             transform="translate(6940.5576,7188.4375)"><path
               d="m 0,0 c -9.565,0 -17.765,3.378 -24.524,10.21 -6.822,6.895 -10.273,15.08 -10.283,24.626 0,-0.014 -0.002,-0.028 -0.002,-0.042 0,-9.565 3.453,-17.762 10.285,-24.668 C -17.764,3.294 -9.565,-0.085 0,-0.085 c 2.949,0 5.538,1.077 7.623,3.165 2.085,2.085 3.165,4.674 3.165,7.623 0,0.014 -0.002,0.027 -0.002,0.041 C 10.776,7.814 9.699,5.24 7.623,3.164 5.538,1.076 2.948,0 0,0"
               style="fill:#000000;fill-opacity:1;fill-rule:nonzero;stroke:none"
               id="path5019"
               inkscape:connector-curvature="0" /></g><g
             style="fill:#000000"
             id="g5021"
             transform="translate(6940.5576,7236.5488)"><path
               d="m 0,0 c -3.596,0 -6.689,-1.294 -9.206,-3.884 l 0,-0.07 -0.071,-0.073 c -2.662,-2.517 -3.956,-5.61 -3.956,-9.206 0,-0.014 0.002,-0.028 0.002,-0.042 0.01,3.578 1.303,6.656 3.954,9.163 l 0.071,0.073 0,0.071 c 2.518,2.59 5.61,3.885 9.206,3.885 3.667,0 6.76,-1.295 9.421,-3.956 1.482,-1.482 2.524,-3.135 3.158,-4.947 -0.627,1.843 -1.656,3.529 -3.159,5.032 C 6.76,-1.294 3.667,0 0,0"
               style="fill:#000000;fill-opacity:1;fill-rule:nonzero;stroke:none"
               id="path5023"
               inkscape:connector-curvature="0" /></g></g></g><g
         style="fill:#000000"
         id="g5025"
         transform="matrix(0.51783122,0,0,-0.51813911,-3680.762,3716.9246)"><g
           style="fill:#000000"
           id="g5027"
           clip-path="url(#clipPath100)"><g
             style="fill:#000000"
             id="g5029"><g
               style="fill:#000000"
               id="g5031"><path
                 d="m 6953.258,7227.208 c -0.039,0.119 -0.079,0.237 -0.121,0.356 l 0,0 c 0.04,-0.119 0.082,-0.237 0.121,-0.356 m 0.111,-0.359 c -0.033,0.121 -0.071,0.24 -0.111,0.359 l 0,0 c 0.039,-0.119 0.076,-0.238 0.111,-0.359"
                 style="fill:#000000;stroke:none"
                 id="path5033"
                 inkscape:connector-curvature="0" /></g></g></g></g><g
         style="fill:#000000"
         id="g5035"
         transform="matrix(0.51783122,0,0,-0.51813911,-3680.762,3716.9246)"><g
           style="fill:#000000"
           id="g5037"
           clip-path="url(#clipPath120)"><g
             style="fill:#000000"
             id="g5039"><g
               style="fill:#000000"
               id="g5041"><path
                 d="m 6917.8,7249.421 c -0.571,-0.517 -1.145,-1.019 -1.695,-1.579 l 0,0 c -0.072,0 -0.072,0 -0.144,-0.076 l 0,0 c -6.834,-6.83 -10.213,-14.958 -10.213,-24.452 l 0,0 c 0,-0.014 0,-0.025 0,-0.04 l 0,0 c 0.011,9.476 3.387,17.589 10.21,24.409 l 0,0 c 0.072,0.072 0.072,0.072 0.144,0.072 l 0,0 c 0.763,0.781 1.554,1.507 2.356,2.198 l 0,0 c -0.22,-0.178 -0.437,-0.348 -0.661,-0.532"
                 style="fill:#000000;stroke:none"
                 id="path5043"
                 inkscape:connector-curvature="0" /></g></g></g></g><g
         style="fill:#000000"
         id="g5045"
         transform="matrix(0.51783122,0,0,-0.51813911,-3680.762,3716.9246)"><g
           style="fill:#000000"
           id="g5047"
           clip-path="url(#clipPath140)"><g
             style="fill:#000000"
             id="g5049"><g
               style="fill:#000000"
               id="g5051"><path
                 d="m 6927.323,7223.231 c 0,-3.668 1.294,-6.758 3.957,-9.421 l 0,0 0.073,0 0,-0.073 c 2.515,-2.515 5.608,-3.809 9.204,-3.809 l 0,0 c 2.949,0 5.537,-1.08 7.622,-3.165 l 0,0 c 2.078,-2.075 3.155,-4.652 3.166,-7.582 l 0,0 c 0,0.014 0,0.028 0,0.043 l 0,0 c 0,2.949 -1.081,5.54 -3.166,7.625 l 0,0 c -2.085,2.086 -4.673,3.162 -7.622,3.162 l 0,0 c -3.596,0 -6.689,1.294 -9.204,3.813 l 0,0 0,0.069 -0.073,0 c -2.653,2.652 -3.943,5.732 -3.953,9.381 l 0,0 c 0,-0.014 0,-0.028 0,-0.043"
                 style="fill:#000000;stroke:none"
                 id="path5053"
                 inkscape:connector-curvature="0" /></g></g></g></g><g
         style="fill:#000000"
         id="g5055"
         transform="matrix(0.51783122,0,0,-0.51813911,-3680.762,3716.9246)" /><rect
         style="fill:url(#radialGradient5301);fill-opacity:1;stroke:none"
         id="rect5285"
         width="73"
         height="66.25"
         x="-107.75"
         y="-17.25"
         clip-path="url(#clipPath5309)" /></g></g></svg>